# xmcd
#
# Track frame offsets:
#	150
#	12165
#	25638
#	38738
#	50030
#	58368
#	65295
#	74055
#	82253
#
# Disc length: 1151 seconds
#
# Revision: 4
# Processed by: cddbd v1.5.1PL0 Copyright (c) Steve Scherf et al.
# Submitted via: audiograbber 1.83.01
#
DISCID=7f047d09
DTITLE=Various Artist - Little Drummer Boy
DYEAR=1993
DGENRE=Christmas
TTITLE0=Frank Sinatrs - White Christmas
TTITLE1=Enzo Stuarti - Little Drummer Boy
TTITLE2=Enzo Stuarti - Ave Maria
TTITLE3=Bing Crosby - Silent Night
TTITLE4=Frank Sinatra and Bing Crosby - The Christmas Song
TTITLE5=Frank Sinatra and Bing Crosby - Hark! The Herald Angels Sing
TTITLE6=Enzo Stuarti - O' Holy Night
TTITLE7=Bing Crosby - It Came Upon A Midnight Clear
TTITLE8=Bing Crosby - O' Little Town Of Bethlehem
EXTD=
EXTT0=Carlene Carter
EXTT1=Clay Walker
EXTT2=Rhonda Vincent
EXTT3=Kenny Rogers
EXTT4=Laura Vida
EXTT5=Orrall and Wright
EXTT6=Dennis Robbins
EXTT7=Deborah Allen
EXTT8=Doron Norwood
PLAYORDER=
